<svg width="176" height="52" viewBox="0 0 176 52" fill="none" xmlns="http://www.w3.org/2000/svg">
<path d="M169.481 52H6.51852C2.93333 52 0 49.075 0 45.5V6.5C0 2.925 2.93333 0 6.51852 0H169.481C173.067 0 176 2.925 176 6.5V45.5C176 49.075 173.067 52 169.481 52Z" fill="black"/>
<path d="M169.481 1.04C172.501 1.04 174.957 3.4892 174.957 6.5V45.5C174.957 48.5108 172.501 50.96 169.481 50.96H6.51852C3.49914 50.96 1.04296 48.5108 1.04296 45.5V6.5C1.04296 3.4892 3.49914 1.04 6.51852 1.04H169.481ZM169.481 0H6.51852C2.93333 0 0 2.925 0 6.5V45.5C0 49.075 2.93333 52 6.51852 52H169.481C173.067 52 176 49.075 176 45.5V6.5C176 2.925 173.067 0 169.481 0Z" fill="#A6A6A6"/>
<path d="M35.8298 25.6035C35.8611 23.1335 37.1596 20.852 39.2703 19.5585C37.9327 17.654 35.7738 16.4905 33.4441 16.4177C30.9931 16.1616 28.6164 17.8802 27.3662 17.8802C26.0925 17.8802 24.1695 16.4424 22.0979 16.4853C19.3732 16.5737 16.8935 18.0804 15.5677 20.4568C12.7438 25.3318 14.8506 32.4948 17.5545 36.4351C18.9078 38.3643 20.4891 40.5197 22.5581 40.443C24.5828 40.3598 25.3389 39.156 27.7834 39.156C30.2057 39.156 30.9149 40.443 33.0256 40.3949C35.1988 40.3598 36.5677 38.4566 37.8727 36.5092C38.8453 35.1338 39.5936 33.6154 40.089 32.0073C37.5103 30.9192 35.8324 28.3972 35.8298 25.6035Z" fill="white"/>
<path d="M31.8419 13.8268C33.0269 12.4085 33.6097 10.5859 33.4689 8.74512C31.6594 8.93492 29.9867 9.79682 28.786 11.1605C27.6009 12.506 26.9999 14.2662 27.116 16.0537C28.9503 16.0732 30.692 15.2516 31.8419 13.8268Z" fill="white"/>
<path d="M61.4268 35.5598H54.5159L52.8563 40.4465H49.9294L56.4753 22.3687H59.5169L66.0628 40.4465H63.0864L61.4268 35.5598ZM55.2329 33.3056H60.7111L58.0111 25.3756H57.9355L55.2329 33.3056Z" fill="white"/>
<path d="M80.1974 33.8559C80.1974 37.9522 77.9994 40.5834 74.6815 40.5834C72.9671 40.6731 71.3518 39.7774 70.5227 38.2772H70.4601V44.8058H67.7471V27.2649H70.3727V29.4567H70.4223C71.2879 27.9669 72.9045 27.0712 74.6306 27.1271C77.9864 27.1271 80.1974 29.7713 80.1974 33.8559ZM77.4088 33.8559C77.4088 31.187 76.0256 29.4333 73.9162 29.4333C71.8433 29.4333 70.4483 31.2247 70.4483 33.8559C70.4483 36.5118 71.8433 38.2902 73.9162 38.2902C76.0256 38.2902 77.4088 36.5482 77.4088 33.8559Z" fill="white"/>
<path d="M94.7455 33.8559C94.7455 37.9522 92.5475 40.5834 89.2296 40.5834C87.5152 40.6731 85.8999 39.7774 85.0707 38.2772H85.0082V44.8058H82.2952V27.2649H84.9208V29.4567H84.9704C85.836 27.9669 87.4526 27.0712 89.1787 27.1271C92.5345 27.1271 94.7455 29.7713 94.7455 33.8559ZM91.9569 33.8559C91.9569 31.187 90.5737 29.4333 88.4643 29.4333C86.3914 29.4333 84.9964 31.2247 84.9964 33.8559C84.9964 36.5118 86.3914 38.2902 88.4643 38.2902C90.5737 38.2902 91.9569 36.5482 91.9569 33.8559Z" fill="white"/>
<path d="M104.36 35.4081C104.561 37.2008 106.308 38.3773 108.694 38.3773C110.981 38.3773 112.626 37.2008 112.626 35.5836C112.626 34.1809 111.634 33.3398 109.284 32.7639L106.935 32.1997C103.607 31.3976 102.061 29.8454 102.061 27.326C102.061 24.2073 104.787 22.0649 108.657 22.0649C112.488 22.0649 115.115 24.2073 115.203 27.326H112.464C112.3 25.5216 110.805 24.4335 108.62 24.4335C106.435 24.4335 104.938 25.5359 104.938 27.1388C104.938 28.4167 105.894 29.1694 108.23 29.744L110.227 30.2328C113.947 31.1103 115.493 32.6001 115.493 35.2443C115.493 38.6269 112.791 40.7446 108.494 40.7446C104.474 40.7446 101.759 38.6763 101.583 35.4068L104.36 35.4081Z" fill="white"/>
<path d="M121.348 24.1462V27.2649H123.861V29.4073H121.348V36.673C121.348 37.8014 121.851 38.3279 122.956 38.3279C123.255 38.3227 123.552 38.3019 123.849 38.2655V40.3949C123.353 40.4872 122.848 40.5288 122.342 40.5197C119.666 40.5197 118.623 39.5174 118.623 36.9616V29.4073H116.701V27.2649H118.623V24.1462H121.348Z" fill="white"/>
<path d="M125.317 33.8559C125.317 29.7089 127.767 27.1037 131.586 27.1037C135.418 27.1037 137.856 29.7089 137.856 33.8559C137.856 38.0146 135.432 40.6081 131.586 40.6081C127.742 40.6081 125.317 38.0146 125.317 33.8559ZM135.091 33.8559C135.091 31.0115 133.784 29.3319 131.586 29.3319C129.388 29.3319 128.081 31.0232 128.081 33.8559C128.081 36.712 129.388 38.3786 131.586 38.3786C133.784 38.3786 135.091 36.712 135.091 33.8559Z" fill="white"/>
<path d="M140.092 27.2649H142.68V29.5087H142.743C143.104 28.0644 144.431 27.0712 145.922 27.1271C146.235 27.1258 146.547 27.1596 146.852 27.2285V29.7596C146.457 29.6387 146.045 29.5841 145.633 29.5958C144.125 29.5347 142.852 30.7047 142.791 32.2088C142.786 32.3492 142.791 32.4883 142.807 32.6274V40.4456H140.094L140.092 27.2649Z" fill="white"/>
<path d="M159.361 36.5742C158.996 38.9662 156.66 40.6094 153.669 40.6094C149.824 40.6094 147.437 38.0406 147.437 33.9196C147.437 29.7856 149.836 27.1037 153.556 27.1037C157.212 27.1037 159.512 29.6088 159.512 33.605V34.5319H150.176V34.6957C150.008 36.5846 151.408 38.2512 153.301 38.4176C153.445 38.4306 153.588 38.4345 153.732 38.4293C155.048 38.5528 156.289 37.7988 156.784 36.5755L159.361 36.5742ZM150.189 32.6404H156.798C156.896 30.8932 155.554 29.3969 153.801 29.2994C153.718 29.2955 153.638 29.2929 153.556 29.2955C151.708 29.2851 150.201 30.7697 150.189 32.6118C150.189 32.6209 150.189 32.6313 150.189 32.6404Z" fill="white"/>
<path d="M54.8925 8.76069C57.0149 8.60859 58.8597 10.2011 59.0122 12.3188C59.0305 12.571 59.0239 12.8258 58.9913 13.0767C58.9913 15.8522 57.4869 17.4473 54.8925 17.4473H51.7454V8.76069H54.8925ZM53.0986 16.2188H54.7413C56.251 16.3085 57.5481 15.1619 57.6381 13.6552C57.6498 13.468 57.6407 13.2795 57.6133 13.0936C57.8193 11.5947 56.7685 10.2141 55.2654 10.0087C55.0907 9.98529 54.916 9.97749 54.74 9.98789H53.0973V16.2188H53.0986Z" fill="white"/>
<path d="M60.5192 14.1661C60.355 12.4592 61.6104 10.9421 63.3222 10.7796C65.034 10.6158 66.5554 11.8677 66.7183 13.5746C66.7366 13.7709 66.7366 13.9698 66.7183 14.1661C66.8852 15.873 65.6324 17.3927 63.9206 17.5591C62.2088 17.7255 60.6848 16.4762 60.5179 14.7693C60.4997 14.5678 60.4997 14.3663 60.5192 14.1661ZM65.3847 14.1661C65.3847 12.7452 64.7445 11.9145 63.6207 11.9145C62.493 11.9145 61.8581 12.7452 61.8581 14.1661C61.8581 15.5987 62.493 16.4229 63.6207 16.4229C64.7445 16.4229 65.3847 15.5922 65.3847 14.1661Z" fill="white"/>
<path d="M74.9616 17.446H73.6162L72.2578 12.6178H72.1548L70.8015 17.446H69.4691L67.657 10.8914H68.9724L70.1497 15.8938H70.2461L71.5981 10.8914H72.8431L74.1951 15.8938H74.2981L75.4701 10.8914H76.7673L74.9616 17.446Z" fill="white"/>
<path d="M78.29 10.8914H79.539V11.9327H79.6355C79.9731 11.1657 80.7606 10.6964 81.5975 10.7653C82.7748 10.6769 83.8008 11.557 83.8895 12.7309C83.9012 12.8882 83.896 13.0468 83.8725 13.2028V17.446H82.5766V13.5278C82.5766 12.4748 82.1177 11.9509 81.1582 11.9509C80.3264 11.9119 79.6198 12.5528 79.582 13.3835C79.5781 13.4602 79.5807 13.5369 79.5885 13.6123V17.4473H78.2913L78.29 10.8914Z" fill="white"/>
<path d="M85.9414 8.33301H87.2386V17.4473H85.9414V8.33301Z" fill="white"/>
<path d="M89.0418 14.1661C88.8775 12.4592 90.133 10.9421 91.846 10.7783C93.5578 10.6145 95.0792 11.8664 95.2435 13.5746C95.2617 13.7709 95.2617 13.9685 95.2435 14.1661C95.4104 15.873 94.1575 17.3927 92.4444 17.5591C90.7327 17.7255 89.2086 16.4762 89.0418 14.768C89.0222 14.5678 89.0222 14.3663 89.0418 14.1661ZM93.9072 14.1661C93.9072 12.7452 93.2671 11.9145 92.1433 11.9145C91.0156 11.9145 90.3807 12.7452 90.3807 14.1661C90.3807 15.5987 91.0156 16.4229 92.1433 16.4229C93.2671 16.4229 93.9072 15.5922 93.9072 14.1661Z" fill="white"/>
<path d="M96.6084 15.5922C96.6084 14.4118 97.4897 13.7319 99.0528 13.6357L100.834 13.533V12.9675C100.834 12.2746 100.375 11.8846 99.4883 11.8846C98.7634 11.8846 98.2628 12.1498 98.1181 12.6126H96.8626C96.9956 11.4868 98.0568 10.764 99.5483 10.764C101.196 10.764 102.126 11.5817 102.126 12.9662V17.4447H100.877V16.523H100.774C100.35 17.1951 99.5952 17.589 98.7986 17.5526C97.7074 17.6657 96.731 16.8753 96.6175 15.7885C96.6123 15.7248 96.6084 15.6585 96.6084 15.5922ZM100.835 15.0332V14.4846L99.2301 14.5873C98.3254 14.6471 97.9147 14.9552 97.9147 15.5324C97.9147 16.1226 98.4284 16.4658 99.1337 16.4658C99.985 16.5516 100.745 15.9328 100.831 15.0839C100.832 15.067 100.834 15.0501 100.835 15.0332Z" fill="white"/>
<path d="M103.831 14.1661C103.831 12.0952 104.899 10.7822 106.559 10.7822C107.398 10.7432 108.184 11.1917 108.575 11.9327H108.671V8.33301H109.969V17.4473H108.725V16.4112H108.625C108.203 17.1457 107.408 17.5864 106.561 17.5552C104.888 17.5552 103.831 16.2422 103.831 14.1661ZM105.171 14.1661C105.171 15.5571 105.828 16.393 106.927 16.393C108.021 16.393 108.696 15.5441 108.696 14.1713C108.696 12.805 108.013 11.9444 106.927 11.9444C105.836 11.9444 105.171 12.7868 105.171 14.1661Z" fill="white"/>
<path d="M115.339 14.1661C115.175 12.4592 116.43 10.9421 118.142 10.7796C119.854 10.6158 121.375 11.8677 121.538 13.5746C121.556 13.7709 121.556 13.9698 121.538 14.1661C121.705 15.873 120.452 17.3927 118.74 17.5591C117.028 17.7255 115.504 16.4762 115.338 14.7693C115.319 14.5678 115.319 14.3663 115.339 14.1661ZM120.204 14.1661C120.204 12.7452 119.564 11.9145 118.44 11.9145C117.313 11.9145 116.678 12.7452 116.678 14.1661C116.678 15.5987 117.313 16.4229 118.44 16.4229C119.564 16.4229 120.204 15.5922 120.204 14.1661Z" fill="white"/>
<path d="M123.28 10.8914H124.528V11.9327H124.625C124.963 11.1657 125.75 10.6964 126.587 10.7653C127.764 10.6769 128.79 11.557 128.879 12.7309C128.891 12.8882 128.885 13.0468 128.862 13.2028V17.446H127.565V13.5278C127.565 12.4748 127.106 11.9509 126.146 11.9509C125.315 11.9119 124.608 12.5528 124.57 13.3835C124.566 13.4602 124.569 13.5369 124.577 13.6123V17.4473H123.28V10.8914Z" fill="white"/>
<path d="M136.193 9.25992V10.9213H137.616V12.0107H136.193V15.3816C136.193 16.068 136.477 16.3683 137.122 16.3683C137.288 16.3683 137.453 16.3579 137.616 16.3384V17.4161C137.383 17.4577 137.147 17.4798 136.911 17.4824C135.468 17.4824 134.894 16.9767 134.894 15.7131V12.0107H133.851V10.9213H134.894V9.25992H136.193Z" fill="white"/>
<path d="M139.389 8.33301H140.675V11.9457H140.778C141.131 11.1722 141.933 10.7029 142.783 10.7718C143.977 10.7068 144.998 11.6194 145.063 12.8102C145.071 12.9454 145.066 13.0806 145.047 13.2145V17.4473H143.749V13.5343C143.749 12.4878 143.26 11.9574 142.344 11.9574C141.499 11.8885 140.757 12.5151 140.688 13.3588C140.681 13.4459 140.681 13.533 140.689 13.6201V17.4486H139.392L139.389 8.33301Z" fill="white"/>
<path d="M152.612 15.6767C152.248 16.913 151.047 17.7125 149.763 17.5734C148.114 17.6163 146.742 16.3189 146.699 14.6757C146.695 14.5132 146.705 14.3507 146.727 14.1895C146.504 12.5346 147.669 11.0136 149.329 10.7913C149.471 10.7718 149.614 10.764 149.758 10.764C151.587 10.764 152.69 12.0107 152.69 14.0686V14.5197H148.047V14.5925C147.967 15.5454 148.677 16.3839 149.633 16.4645C149.687 16.4697 149.742 16.471 149.798 16.471C150.433 16.5464 151.051 16.2331 151.363 15.6767H152.612ZM148.047 13.5642H151.368C151.433 12.6932 150.777 11.934 149.904 11.8703C149.853 11.8664 149.801 11.8651 149.75 11.8664C148.822 11.8547 148.059 12.5957 148.047 13.5213C148.047 13.5356 148.047 13.5499 148.047 13.5642Z" fill="white"/>
</svg>
