<svg width="176" height="52" viewBox="0 0 176 52" fill="none" xmlns="http://www.w3.org/2000/svg">
<path d="M169.481 52H6.51852C2.93333 52 0 49.075 0 45.5V6.5C0 2.925 2.93333 0 6.51852 0H169.481C173.067 0 176 2.925 176 6.5V45.5C176 49.075 173.067 52 169.481 52Z" fill="black"/>
<path d="M169.481 1.04C172.501 1.04 174.957 3.4892 174.957 6.5V45.5C174.957 48.5108 172.501 50.96 169.481 50.96H6.51852C3.49914 50.96 1.04296 48.5108 1.04296 45.5V6.5C1.04296 3.4892 3.49914 1.04 6.51852 1.04H169.481ZM169.481 0H6.51852C2.93333 0 0 2.925 0 6.5V45.5C0 49.075 2.93333 52 6.51852 52H169.481C173.067 52 176 49.075 176 45.5V6.5C176 2.925 173.067 0 169.481 0Z" fill="#A6A6A6"/>
<path d="M61.8192 13.3163C61.8192 14.4057 61.4958 15.2728 60.8479 15.9202C60.1126 16.6898 59.1531 17.0746 57.9745 17.0746C56.8455 17.0746 55.8847 16.6846 55.096 15.9046C54.3059 15.1233 53.9109 14.1561 53.9109 13.0017C53.9109 11.846 54.3059 10.8788 55.096 10.0988C55.8847 9.31749 56.8455 8.92749 57.9745 8.92749C58.5351 8.92749 59.071 9.03669 59.5794 9.25509C60.0891 9.47349 60.4972 9.76339 60.8023 10.1261L60.1152 10.8125C59.5976 10.195 58.8845 9.88689 57.9732 9.88689C57.1493 9.88689 56.4375 10.1755 55.8365 10.7527C55.2354 11.3299 54.9356 12.08 54.9356 13.0017C54.9356 13.9234 55.2354 14.6735 55.8365 15.2507C56.4375 15.8279 57.1493 16.1165 57.9732 16.1165C58.8467 16.1165 59.5755 15.8266 60.1582 15.2455C60.5363 14.8672 60.7553 14.3407 60.814 13.666H57.9732V12.7287H61.7631C61.8022 12.9315 61.8192 13.1278 61.8192 13.3163Z" fill="white" stroke="white" stroke-width="0.2" stroke-miterlimit="10"/>
<path d="M67.8293 10.0585H64.2676V12.5311H67.4799V13.4684H64.2676V15.941H67.8293V16.9004H63.2625V9.10043H67.8293V10.0585Z" fill="white" stroke="white" stroke-width="0.2" stroke-miterlimit="10"/>
<path d="M72.0671 16.9004H71.062V10.0585H68.877V9.10043H74.2521V10.0585H72.0671V16.9004Z" fill="white" stroke="white" stroke-width="0.2" stroke-miterlimit="10"/>
<path d="M78.1416 16.9004V9.10043H79.1468V16.9004H78.1416Z" fill="white" stroke="white" stroke-width="0.2" stroke-miterlimit="10"/>
<path d="M83.6037 16.9004H82.5986V10.0585H80.4136V9.10043H85.7888V10.0585H83.6037V16.9004Z" fill="white" stroke="white" stroke-width="0.2" stroke-miterlimit="10"/>
<path d="M95.9644 15.8925C95.1952 16.6816 94.2396 17.0742 93.0962 17.0742C91.9529 17.0742 90.9973 16.6803 90.2294 15.8925C89.4602 15.1047 89.0769 14.1401 89.0769 13C89.0769 11.8599 89.4602 10.8953 90.2294 10.1075C90.9973 9.31837 91.9529 8.92447 93.0962 8.92447C94.2331 8.92447 95.1874 9.32097 95.9592 10.1127C96.731 10.9044 97.1168 11.8664 97.1168 13C97.1168 14.1401 96.7323 15.1047 95.9644 15.8925ZM90.9712 15.2386C91.55 15.8236 92.2579 16.1148 93.0962 16.1148C93.9345 16.1148 94.6437 15.8223 95.2213 15.2386C95.8001 14.6536 96.0908 13.9074 96.0908 13C96.0908 12.0926 95.8001 11.3464 95.2213 10.7614C94.6437 10.1764 93.9345 9.88517 93.0962 9.88517C92.2579 9.88517 91.55 10.1777 90.9712 10.7614C90.3936 11.3464 90.1029 12.0926 90.1029 13C90.1029 13.9074 90.3936 14.6536 90.9712 15.2386Z" fill="white" stroke="white" stroke-width="0.2" stroke-miterlimit="10"/>
<path d="M98.5271 16.9004V9.10043H99.75L103.552 15.1675H103.595L103.552 13.6647V9.10043H104.557V16.9004H103.507L99.5297 10.5382H99.4866L99.5297 12.041V16.9004H98.5271Z" fill="white" stroke="white" stroke-width="0.2" stroke-miterlimit="10"/>
<path d="M88.8294 28.2776C85.7631 28.2776 83.2639 30.602 83.2639 33.8065C83.2639 36.9902 85.7631 39.3354 88.8294 39.3354C91.8957 39.3354 94.3949 36.9902 94.3949 33.8065C94.3949 30.602 91.8957 28.2776 88.8294 28.2776ZM88.8294 37.1566C87.1489 37.1566 85.6992 35.7747 85.6992 33.8052C85.6992 31.8162 87.1489 30.4538 88.8294 30.4538C90.5099 30.4538 91.9583 31.8149 91.9583 33.8052C91.9583 35.7747 90.5099 37.1566 88.8294 37.1566ZM76.688 28.2776C73.6217 28.2776 71.1225 30.602 71.1225 33.8065C71.1225 36.9902 73.6217 39.3354 76.688 39.3354C79.7543 39.3354 82.2535 36.9902 82.2535 33.8065C82.2535 30.602 79.7543 28.2776 76.688 28.2776ZM76.688 37.1566C75.0075 37.1566 73.5578 35.7747 73.5578 33.8052C73.5578 31.8162 75.0075 30.4538 76.688 30.4538C78.3685 30.4538 79.8169 31.8149 79.8169 33.8052C79.8169 35.7747 78.3672 37.1566 76.688 37.1566ZM62.2443 29.9741V32.3193H67.8737C67.7055 33.6388 67.2648 34.6021 66.5921 35.2729C65.7734 36.0893 64.4918 36.9902 62.2443 36.9902C58.779 36.9902 56.0699 34.2043 56.0699 30.7489C56.0699 27.2935 58.779 24.5076 62.2443 24.5076C64.1138 24.5076 65.4787 25.2408 66.4865 26.1833L68.1461 24.5284C66.7394 23.1881 64.8699 22.1624 62.2443 22.1624C57.4975 22.1624 53.5068 26.0156 53.5068 30.7489C53.5068 35.4822 57.4975 39.3354 62.2443 39.3354C64.8073 39.3354 66.7394 38.4982 68.2517 36.9265C69.8057 35.3769 70.2894 33.1981 70.2894 31.4392C70.2894 30.8945 70.2477 30.3914 70.163 29.9728H62.2443V29.9741ZM121.312 31.7954C120.851 30.5591 119.443 28.2776 116.566 28.2776C113.709 28.2776 111.337 30.5188 111.337 33.8065C111.337 36.9057 113.688 39.3354 116.839 39.3354C119.38 39.3354 120.851 37.7858 121.46 36.8849L119.569 35.6278C118.94 36.5495 118.078 37.1566 116.839 37.1566C115.6 37.1566 114.718 36.5911 114.151 35.4809L121.565 32.4233L121.312 31.7954ZM113.751 33.6388C113.688 31.5029 115.411 30.4135 116.649 30.4135C117.615 30.4135 118.434 30.8945 118.708 31.5861L113.751 33.6388ZM107.724 39H110.161V22.7487H107.724V39ZM103.732 29.5126H103.649C103.102 28.8639 102.053 28.2776 100.73 28.2776C97.9566 28.2776 95.4157 30.7073 95.4157 33.8273C95.4157 36.9265 97.9566 39.3354 100.73 39.3354C102.053 39.3354 103.102 38.7491 103.649 38.0783H103.732V38.8739C103.732 40.989 102.598 42.12 100.77 42.12C99.2786 42.12 98.3542 41.0514 97.9762 40.1518L95.855 41.0319C96.4639 42.4983 98.0818 44.2988 100.77 44.2988C103.626 44.2988 106.042 42.6231 106.042 38.5398V28.613H103.732V29.5126ZM100.939 37.1566C99.259 37.1566 97.8523 35.7539 97.8523 33.826C97.8523 31.8786 99.259 30.4538 100.939 30.4538C102.599 30.4538 103.902 31.8773 103.902 33.826C103.9 35.7539 102.599 37.1566 100.939 37.1566ZM132.725 22.7487H126.896V39H129.329V32.8432H132.726C135.422 32.8432 138.073 30.8971 138.073 27.7966C138.073 24.6961 135.421 22.7487 132.725 22.7487ZM132.788 30.5812H129.328V25.0107H132.788C134.606 25.0107 135.639 26.5122 135.639 27.7966C135.639 29.055 134.606 30.5812 132.788 30.5812ZM147.822 28.2477C146.061 28.2477 144.237 29.0212 143.482 30.7359L145.642 31.6355C146.104 30.7359 146.963 30.4434 147.865 30.4434C149.123 30.4434 150.402 31.1961 150.423 32.5338V32.7015C149.982 32.4506 149.038 32.0736 147.886 32.0736C145.559 32.0736 143.189 33.3489 143.189 35.7331C143.189 37.908 145.097 39.3081 147.235 39.3081C148.871 39.3081 149.772 38.5762 150.338 37.7195H150.422V38.974H152.77V32.7431C152.77 29.8571 150.611 28.2477 147.822 28.2477ZM147.529 37.154C146.732 37.154 145.62 36.7562 145.62 35.7734C145.62 34.5189 147.005 34.0379 148.199 34.0379C149.268 34.0379 149.771 34.268 150.422 34.5813C150.233 36.088 148.933 37.154 147.529 37.154ZM161.324 28.6026L158.536 35.6486H158.452L155.559 28.6026H152.939L157.279 38.4501L154.805 43.9283H157.342L164.031 28.6026H161.324ZM139.413 39H141.846V22.7487H139.413V39Z" fill="white"/>
<path d="M13.6041 9.79937C13.2247 10.1998 13.0005 10.8212 13.0005 11.6259V40.3767C13.0005 41.1827 13.2247 41.8028 13.6041 42.2032L13.7006 42.2968L29.8522 26.1911V26.0013V25.8115L13.7006 9.70447L13.6041 9.79937Z" fill="url(#paint0_linear)"/>
<path d="M35.2363 31.5614L29.8533 26.1911V26.0013V25.8115L35.2376 20.4425L35.3588 20.5114L41.7378 24.1254C43.5604 25.1576 43.5604 26.8463 41.7378 27.8798L35.3588 31.4938L35.2363 31.5614Z" fill="url(#paint1_linear)"/>
<path d="M35.3589 31.4925L29.8534 26.0013L13.604 42.2032C14.205 42.8376 15.1958 42.9156 16.3131 42.2825L35.3589 31.4925Z" fill="url(#paint2_linear)"/>
<path d="M35.3596 20.5101L16.3151 9.72011C15.1978 9.08701 14.207 9.16631 13.606 9.79941L29.854 26.0013L35.3596 20.5101Z" fill="url(#paint3_linear)"/>
<path opacity="0.2" d="M35.2383 31.3716L16.3151 42.0927C15.2564 42.692 14.31 42.653 13.7024 42.107L13.606 42.2045L13.7024 42.2981C14.31 42.8441 15.2564 42.8844 16.3151 42.2838L35.3596 31.4938L35.2383 31.3716Z" fill="black"/>
<path opacity="0.12" d="M13.6041 42.0134C13.2247 41.613 13.0005 40.9916 13.0005 40.1869V40.3767C13.0005 41.1814 13.2247 41.8028 13.6041 42.2032L13.7006 42.1057L13.6041 42.0134Z" fill="black"/>
<path opacity="0.12" d="M41.7383 27.6887L35.238 31.3716L35.3593 31.4925L41.7383 27.8785C42.6496 27.3624 43.1046 26.6825 43.1046 26.0026C43.0277 26.6175 42.5635 27.2207 41.7383 27.6887Z" fill="black"/>
<path opacity="0.25" d="M16.3134 9.90988L41.737 24.3139C42.5635 24.7819 43.0263 25.3851 43.1033 26.0013C43.1033 25.3214 42.6483 24.6402 41.737 24.1241L16.3134 9.72008C14.4909 8.68788 13.0007 9.54458 13.0007 11.6259V11.8157C13.0007 9.73568 14.4909 8.87768 16.3134 9.90988Z" fill="white"/>
<defs>
<linearGradient id="paint0_linear" x1="28.4203" y1="11.3226" x2="6.60327" y2="33.2018" gradientUnits="userSpaceOnUse">
<stop stop-color="#00A0FF"/>
<stop offset="0.0066" stop-color="#00A1FF"/>
<stop offset="0.2601" stop-color="#00BEFF"/>
<stop offset="0.5122" stop-color="#00D2FF"/>
<stop offset="0.7604" stop-color="#00DFFF"/>
<stop offset="1" stop-color="#00E3FF"/>
</linearGradient>
<linearGradient id="paint1_linear" x1="44.1098" y1="26.0018" x2="12.5642" y2="26.0018" gradientUnits="userSpaceOnUse">
<stop stop-color="#FFE000"/>
<stop offset="0.4087" stop-color="#FFBD00"/>
<stop offset="0.7754" stop-color="#FFA500"/>
<stop offset="1" stop-color="#FF9C00"/>
</linearGradient>
<linearGradient id="paint2_linear" x1="32.3669" y1="28.9849" x2="2.78124" y2="58.6548" gradientUnits="userSpaceOnUse">
<stop stop-color="#FF3A44"/>
<stop offset="1" stop-color="#C31162"/>
</linearGradient>
<linearGradient id="paint3_linear" x1="9.51402" y1="0.229074" x2="22.7253" y2="13.4779" gradientUnits="userSpaceOnUse">
<stop stop-color="#32A071"/>
<stop offset="0.0685" stop-color="#2DA771"/>
<stop offset="0.4762" stop-color="#15CF74"/>
<stop offset="0.8009" stop-color="#06E775"/>
<stop offset="1" stop-color="#00F076"/>
</linearGradient>
</defs>
</svg>
